# AST/ASF file generated using VICON BodyLanguage
# -----------------------------------------------
:version 1.10
:name VICON
:units
  mass 1.0
  length 0.45
  angle deg
:documentation
   .ast/.asf automatically generated from VICON data using
   VICON BodyBuilder and BodyLanguage model FoxedUp or BRILLIANT.MOD
:root
   order TX TY TZ RX RY RZ
   axis XYZ
   position 0 0 0  
   orientation 0 0 0 
:bonedata
  begin
     id 1 
     name lhipjoint
     direction 0.567725 -0.736092 0.368589 
     length 2.42353 
     axis 0 0 0  XYZ
  end
  begin
     id 2 
     name lfemur
     direction 0.34202 -0.939693 0  
     length 7.24894  
     axis 0 0 20  XYZ
    dof rx ry rz
    limits (-160.0 20.0)
           (-70.0 70.0)
           (-60.0 70.0)
  end
  begin
     id 3 
     name ltibia
     direction 0.34202 -0.939693 0   
     length 7.6997   
     axis 0 0 20   XYZ
    dof rx
    limits (-10.0 170.0)
  end
  begin
     id 4 
     name lfoot
     direction 0.100767 -0.276854 0.955614   
     length 2.37556   
     axis -90 7.62852e-016 20   XYZ
    dof rx rz
    limits (-45.0 90.0)
           (-70.0 20.0)
  end
  begin
     id 5 
     name ltoes
     direction 1.53592e-011 -4.21894e-011 1   
     length 1.18363   
     axis -90 7.62852e-016 20   XYZ
    dof rx
    limits (-90.0 20.0)
  end
  begin
     id 6 
     name rhipjoint
     direction -0.556459 -0.742938 0.372017   
     length 2.4012  
     axis 0 0 0  XYZ 
  end
  begin
     id 7 
     name rfemur
     direction -0.34202 -0.939693 0   
     length 7.5119   
     axis 0 0 -20   XYZ
    dof rx ry rz
    limits (-160.0 20.0)
           (-70.0 70.0)
           (-70.0 60.0)
  end
  begin
     id 8 
     name rtibia
     direction -0.34202 -0.939693 0   
     length 7.50155   
     axis 0 0 -20   XYZ
    dof rx
    limits (-10.0 170.0)
 end
 begin
     id 9 
     name rfoot
     direction -0.118427 -0.325376 0.938139   
     length 2.32487  
     axis -90 -7.62852e-016 -20   XYZ
    dof rx rz
    limits (-45.0 90.0)
           (-20.0 70.0)
  end
  begin
     id 10 
     name rtoes
     direction -1.53525e-011 -4.21868e-011 1   
     length 1.15233   
     axis -90 -7.62852e-016 -20   XYZ
    dof rx
    limits (-90.0 20.0)
  end
  begin
     id 11 
     name lowerback
     direction 0.0287568 0.999577 -0.00434502   
     length 2.15243   
     axis 0 0 0   XYZ
    dof rx ry rz
    limits (-20.0 45.0)
           (-30.0 30.0)
           (-30.0 30.0)
  end
  begin
     id 12 
     name upperback
     direction 0.0294009 0.99956 0.00404628   
     length 2.15427   
     axis 0 0 0   XYZ
    dof rx ry rz
    limits (-20.0 45.0)
           (-30.0 30.0)
           (-30.0 30.0)
  end
  begin
     id 13 
     name thorax
     direction 0.0151014 0.999868 0.0059419   
     length 2.14898   
     axis 0 0 0   XYZ
    dof rx ry rz
    limits (-20.0 45.0)
           (-30.0 30.0)
           (-30.0 30.0)
  end
  begin
     id 14 
     name lowerneck
     direction -0.0249197 0.989906 0.139515   
     length 1.6861   
     axis 0 0 0   XYZ
    dof rx ry rz
    limits (-20.0 45.0)
           (-30.0 30.0)
           (-30.0 30.0)
  end
  begin
     id 15 
     name upperneck
     direction 0.0438463 0.988795 -0.142693   
     length 1.71276   
     axis 0 0 0   XYZ
    dof rx ry rz
    limits (-20.0 45.0)
           (-30.0 30.0)
           (-30.0 30.0)
  end
  begin
     id 16
     name head
     direction 0.0148499 0.997845 -0.0639186  
     length 1.7209  
     axis 0 0 0   XYZ
    dof rx ry rz
    limits (-20.0 45.0)
           (-30.0 30.0)
           (-30.0 30.0)
  end
  begin
     id 17 
     name lclavicle
     direction 0.940298 0.323464 -0.105876  
     length 3.9048  
     axis 0 0 0   XYZ
    dof ry rz
    limits (-20.0 10.0)
           (0.0 20.0)
  end
  begin
     id 18 
     name lhumerus
     direction 1 -4.48954e-011 -4.9675e-028   
     length 4.6851   
     axis 180 -30 -90   XYZ
    dof rx ry rz
    limits (-60.0 90.0)
           (-90.0 90.0)
           (-90.0 90.0)
  end
  begin
     id 19
     name lradius
     direction 1 -4.48992e-011 -1.03359e-026   
     length 3.39626   
     axis 180 -30 -90   XYZ
    dof rx
    limits (-10.0 170.0)
  end
  begin
     id 20
     name lwrist
     direction 1 -4.48906e-011 -1.67336e-026   
     length 1.69813   
     axis 9.90442e-015 90 90   XYZ
    dof ry
    limits (-180.0 0.0)
 end
  begin
     id 21 
     name lhand
     direction 1 -4.49006e-011 -3.34673e-026   
     length 0.486078   
     axis 2.1355e-014 90 90   XYZ
    dof rx rz
    limits (-90.0 90.0)
           (-45.0 45.0)
  end
  begin
     id 22 
     name lfingers
     direction 1 -4.48992e-011 -6.69345e-026   
     length 0.391889   
     axis 4.27099e-014 90 90   XYZ
    dof rx
    limits (0.0 90.0)
  end
  begin
     id 23
     name lthumb
     direction 0.707107 -6.34926e-011 0.707107   
     length 0.562676   
     axis -90 45 2.85299e-015   XYZ
    dof rx rz
    limits (-45.0 45.0)
           (-45.0 45.0)
  end
  begin
     id 24 
     name rclavicle
     direction -0.882459 0.414895 -0.221648   
     length 3.44646  
     axis 0 0 0   XYZ 
    dof ry rz
    limits (-10.0 20.0)
           (-20.0 0.0)
  end
  begin
     id 25 
     name rhumerus
     direction -1 -4.48962e-011 -2.37984e-027  
     length 5.55576   
     axis 180 30 90   XYZ
    dof rx ry rz
    limits (-90.0 60.0)
           (-90.0 90.0)
           (-90.0 90.0)
  end
  begin
     id 26 
     name rradius
     direction -1 -4.48982e-011 -6.86791e-027   
     length 3.32774   
     axis 180 30 90   XYZ
    dof rx
    limits (-10.0 170.0)
  end
  begin
     id 27 
     name rwrist
     direction -1 -4.48961e-011 -1.67336e-026   
     length 1.66387   
     axis 9.90442e-015 -90 -90   XYZ
    dof ry
    limits (-180.0 0.0)
  end
  begin
     id 28
     name rhand
     direction -1 -4.4897e-011 -3.34673e-026   
     length 0.507628   
     axis 2.1355e-014 -90 -90   XYZ
    dof rx rz
    limits (-90.0 90.0)
           (-45.0 45.0)
  end
  begin
     id 29
     name rfingers
     direction -1 -4.48854e-011 -6.69345e-026   
     length 0.409263   
     axis 4.27099e-014 -90 -90   XYZ
    dof rx
    limits (0.0 90.0)
  end
  begin
     id 30
     name rthumb
     direction -0.707107 -6.34913e-011 0.707107   
     length 0.587622   
     axis -90 -45 -2.85299e-015   XYZ
    dof rx rz
    limits (-45.0 45.0)
           (-45.0 45.0)
  end
:hierarchy
  begin
    root lhipjoint rhipjoint lowerback
    lhipjoint lfemur
    lfemur ltibia
    ltibia lfoot
    lfoot ltoes
    rhipjoint rfemur
    rfemur rtibia
    rtibia rfoot
    rfoot rtoes
    lowerback upperback
    upperback thorax
    thorax lowerneck lclavicle rclavicle
    lowerneck upperneck
    upperneck head
    lclavicle lhumerus
    lhumerus lradius
    lradius lwrist
    lwrist lhand lthumb
    lhand lfingers
    rclavicle rhumerus
    rhumerus rradius
    rradius rwrist
    rwrist rhand rthumb
    rhand rfingers
  end

#!OML:ASF E:\motion texture\Top Level 1\Subject 1\Session 1\male.ASF
:FULLY-SPECIFIED
:DEGREES
33
root 23.4725 17.8378 5.34527 60.0652 -79.2304 -52.9738
lowerback -0.880374 1.88861 6.07058
upperback -1.12217 2.42859 3.43739
thorax -0.557225 1.14959 0.149723
lowerneck -9.03993 -7.6928 -8.67785
upperneck 5.28856 -10.0875 10.0686
head 4.00998 -4.74439 3.79643
rclavicle -1.2598e-014 4.4329e-014
rhumerus -34.2719 -3.9131 -84.0421
rradius 28.6226
rwrist 10.4749
rhand -17.6366 -34.532
rfingers 7.12502
rthumb 8.62102 -64.336
lclavicle -1.2598e-014 4.4329e-014
lhumerus -45.6573 29.6542 57.6578
lradius 19.3765
lwrist -35.1039
lhand -12.9174 20.4988
lfingers 7.12502
lthumb 13.1728 50.0627
rfemur -4.63041 5.39734 34.8191
rtibia 14.2816
rfoot -11.7875 -13.1301
rtoes 12.0546
lfemur -35.536 -0.197368 -6.56065
ltibia 51.5748
lfoot -9.62196 4.75549
ltoes -15.0574
34
root 23.3363 17.8286 5.34897 61.3138 -79.3574 -54.0837
lowerback -0.882132 2.01758 6.14733
upperback -1.14603 2.60172 3.38076
thorax -0.567771 1.23484 0.0504762
lowerneck -9.03778 -7.68589 -8.69774
upperneck 5.17801 -10.0629 10.0281
head 3.9725 -4.73569 3.79087
rclavicle 1.56294e-014 -2.50469e-014
rhumerus -34.3405 -4.44367 -83.8318
rradius 27.3688
rwrist 11.5428
rhand -17.7949 -31.3096
rfingers 7.12502
rthumb 8.46832 -61.1198
lclavicle 1.56294e-014 -2.50469e-014
lhumerus -46.3938 29.8171 56.745
lradius 19.4001
lwrist -35.1056
lhand -12.9453 20.5417
lfingers 7.12502
lthumb 13.1459 50.1073
rfemur -4.25778 5.50342 34.9062
rtibia 14.2728
rfoot -12.0622 -13.058
rtoes 11.5246
lfemur -35.9307 -0.102618 -6.48757
ltibia 49.5076
lfoot -9.7788 5.17464
ltoes -15.2299
35
root 23.1997 17.8184 5.3532 62.5964 -79.4817 -55.2301
lowerback -0.887002 2.14089 6.2184
upperback -1.16701 2.76682 3.3265
thorax -0.573553 1.31625 -0.042976
lowerneck -9.02713 -7.67466 -8.71166
upperneck 5.06116 -10.0334 9.98599
head 3.93091 -4.72485 3.78469
rclavicle 1.61264e-014 2.26615e-014
rhumerus -34.4156 -4.91211 -83.6525
rradius 26.3624
rwrist 12.4289
rhand -18.0217 -29.138
rfingers 7.12502
rthumb 8.24937 -58.9569
lclavicle 1.61264e-014 2.26615e-014
lhumerus -47.1166 29.9831 55.8546
lradius 19.42
lwrist -35.1073
lhand -12.9822 20.6119
lfingers 7.12502
lthumb 13.1103 50.1798
rfemur -3.89802 5.58896 34.9824
rtibia 14.2955
rfoot -12.3287 -12.9642
rtoes 10.9503
lfemur -36.2334 -0.0381164 -6.39695
ltibia 47.277
lfoot -9.79788 5.53237
ltoes -15.3315
36
root 23.0613 17.8072 5.35874 64.0874 -79.6171 -56.6033
lowerback -0.894833 2.269 6.2985
upperback -1.17723 2.93724 3.2725
thorax -0.565208 1.4007 -0.140564
lowerneck -9.01209 -7.65944 -8.71868
upperneck 4.94583 -9.99996 9.94269
head 3.88831 -4.71206 3.77757
rclavicle 3.47873e-014 1.98785e-016
rhumerus -34.4968 -5.29671 -83.5169
rradius 25.6126
rwrist 13.1099
rhand -18.2343 -28.0114
rfingers 7.12502
rthumb 8.04418 -57.8383
lclavicle 3.47873e-014 1.98785e-016
lhumerus -47.84 30.1821 54.9533
lradius 19.427
lwrist -35.1392
lhand -13.0229 20.6873
lfingers 7.12502
lthumb 13.0711 50.2577
rfemur -3.51819 5.67934 35.0558
rtibia 14.3338
rfoot -12.5888 -12.8346
rtoes 10.3329
lfemur -36.3998 0.0193862 -6.28122
ltibia 44.8552
lfoot -9.64439 5.83507
ltoes -15.4426
37
root 22.9216 17.7952 5.36557 65.7532 -79.7535 -58.1624
lowerback -0.905978 2.40033 6.38982
upperback -1.17953 3.11096 3.21937
thorax -0.54535 1.48706 -0.242848
lowerneck -8.99215 -7.64307 -8.71844
upperneck 4.82774 -9.96601 9.89685
head 3.84356 -4.69914 3.76879
rclavicle 7.67806e-015 -3.3197e-014
rhumerus -34.5803 -5.572 -83.438
rradius 25.1309
rwrist 13.5917
rhand -18.3593 -28.0611
rfingers 7.12502
rthumb 7.92359 -57.8926
lclavicle 7.67806e-015 -3.3197e-014
lhumerus -48.5607 30.4172 54.0442
lradius 19.419
lwrist -35.2003
lhand -13.0693 20.7743
lfingers 7.12502
lthumb 13.0264 50.3476
rfemur -3.13193 5.75747 35.1244
rtibia 14.3911
rfoot -12.8396 -12.675
rtoes 9.67019
lfemur -36.4476 0.0515185 -6.135
ltibia 42.2612
lfoot -9.31137 6.07516
ltoes -15.5271
38
root 22.7806 17.7821 5.3732 67.5328 -79.8799 -59.837
lowerback -0.927107 2.52563 6.48522
upperback -1.17831 3.27526 3.17153
thorax -0.515995 1.56893 -0.341227
lowerneck -8.97592 -7.61894 -8.71022
upperneck 4.71388 -9.92239 9.84653
head 3.79918 -4.6813 3.75805
rclavicle 1.25234e-014 3.77691e-015
rhumerus -34.6563 -5.81472 -83.3515
rradius 24.7899
rwrist 13.8834
rhand -18.2604 -28.3085
rfingers 7.12502
rthumb 8.01903 -58.1364
lclavicle 1.25234e-014 3.77691e-015
lhumerus -49.2915 30.694 53.1207
lradius 19.3973
lwrist -35.2814
lhand -13.1241 20.8901
lfingers 7.12502
lthumb 12.9735 50.4667
rfemur -2.74304 5.83801 35.1956
rtibia 14.4569
rfoot -13.0829 -12.5136
rtoes 8.99033
lfemur -36.3945 0.0447467 -5.95409
ltibia 39.5
lfoot -8.78544 6.25383
ltoes -15.6266
39
root 22.6388 17.7681 5.38123 69.3117 -79.9865 -61.5105
lowerback -0.956894 2.64103 6.57562
upperback -1.17456 3.42521 3.13202
thorax -0.479957 1.64387 -0.42771
lowerneck -8.96576 -7.5924 -8.69643
upperneck 4.60698 -9.87608 9.79213
head 3.7572 -4.66191 3.74511
rclavicle 1.88597e-014 5.76476e-015
rhumerus -34.7192 -6.13935 -83.1739
rradius 24.4988
rwrist 14.2179
rhand -18.1198 -28.1715
rfingers 7.12502
rthumb 8.15467 -57.9941
lclavicle 1.88597e-014 5.76476e-015
lhumerus -50.0157 30.9806 52.2196
lradius 19.3677
lwrist -35.3555
lhand -13.1819 21.0184
lfingers 7.12502
lthumb 12.9179 50.5986
rfemur -2.35769 5.89189 35.2651
rtibia 14.5304
rfoot -13.3228 -12.3439
rtoes 8.29593
lfemur -36.2534 -0.0214032 -5.73796
ltibia 36.5957
lfoot -8.10018 6.37132
ltoes -15.6953
40
root 22.4968 17.7529 5.38967 71.0577 -80.0676 -63.1355
lowerback -0.998901 2.74213 6.66296
upperback -1.17489 3.55485 3.10434
thorax -0.442713 1.70857 -0.49988
lowerneck -8.9741 -7.56006 -8.68498
upperneck 4.51555 -9.82144 9.73663
head 3.72225 -4.63775 3.73204
rclavicle -3.16068e-014 2.8625e-014
rhumerus -34.7641 -6.43293 -82.9712
rradius 24.2993
rwrist 14.4307
rhand -17.9591 -27.9859
rfingers 7.12502
rthumb 8.30977 -57.8024
lclavicle -3.16068e-014 2.8625e-014
lhumerus -50.7436 31.294 51.3305
lradius 19.3262
lwrist -35.4377
lhand -13.2521 21.1485
lfingers 7.12502
lthumb 12.8502 50.733
rfemur -1.99943 5.91457 35.3335
rtibia 14.6181
rfoot -13.5585 -12.1643
rtoes 7.5868
lfemur -36.0573 -0.157144 -5.48318
ltibia 33.5834
lfoot -7.32482 6.44208
ltoes -15.7262
41
root 22.3539 17.7369 5.39784 72.6371 -80.1182 -64.5807
lowerback -1.05764 2.82385 6.73328
upperback -1.18449 3.6574 3.09102
thorax -0.408719 1.75957 -0.547557
lowerneck -8.97919 -7.52017 -8.67535
upperneck 4.43898 -9.75766 9.67934
head 3.69045 -4.60907 3.71938
rclavicle -3.68e-014 -4.11484e-014
rhumerus -34.8039 -6.6642 -82.7628
rradius 24.2007
rwrist 14.5003
rhand -17.7745 -27.8474
rfingers 7.12502
rthumb 8.48794 -57.6568
lclavicle -3.68e-014 -4.11484e-014
lhumerus -51.4509 31.5408 50.5373
lradius 19.2982
lwrist -35.4288
lhand -13.3187 21.3152
lfingers 7.12502
lthumb 12.786 50.9037
rfemur -1.65845 5.92107 35.407
rtibia 14.7142
rfoot -13.7948 -12.0038
rtoes 6.88431
lfemur -35.8156 -0.375602 -5.19288
ltibia 30.4967
lfoot -6.55148 6.46742
ltoes -15.728
